<?xml version="1.0" encoding="utf-8"?>
<!-- Generator: Adobe Illustrator 16.0.0, SVG Export Plug-In . SVG Version: 6.00 Build 0)  -->
<!DOCTYPE svg PUBLIC "-//W3C//DTD SVG 1.1//EN" "http://www.w3.org/Graphics/SVG/1.1/DTD/svg11.dtd">
<svg version="1.1" id="Layer_1" xmlns="http://www.w3.org/2000/svg" xmlns:xlink="http://www.w3.org/1999/xlink" x="0px" y="0px"
	 width="61.791px" height="66px" viewBox="0 0 61.791 66" enable-background="new 0 0 61.791 66" xml:space="preserve">
<g>
	<path fill="#000000" d="M14.048,32.309c0.525,0,1.006-0.289,1.252-0.754c0.178-0.333,0.213-0.714,0.103-1.076c-0.111-0.361-0.356-0.658-0.69-0.835
		C5.251,24.631,3.318,12.688,2.927,7.787c-0.016-0.192,0.05-0.382,0.181-0.524c0.131-0.142,0.315-0.222,0.508-0.222h4.117
		c0.78,0,1.415-0.635,1.415-1.416c0-0.78-0.635-1.414-1.415-1.414H1.416c-0.768,0-1.402,0.625-1.415,1.393
		C-0.011,6.391-0.142,24.976,13.39,32.146C13.594,32.254,13.815,32.309,14.048,32.309z"/>
	<path fill="#000000" d="M61.79,5.604c-0.013-0.768-0.647-1.393-1.415-1.393h-6.317c-0.779,0-1.414,0.634-1.414,1.414
		c0,0.78,0.635,1.416,1.414,1.416h4.121c0.193,0,0.377,0.08,0.508,0.221c0.131,0.141,0.196,0.331,0.182,0.522
		c-0.381,4.897-2.293,16.829-11.789,21.859c-0.334,0.177-0.58,0.474-0.691,0.835c-0.11,0.361-0.074,0.743,0.103,1.077
		c0.247,0.464,0.727,0.753,1.253,0.753c0.232,0,0.454-0.055,0.659-0.164C61.933,24.976,61.802,6.391,61.79,5.604z"/>
	<path fill="#000000" d="M51.952,63.171h-4.211c-0.382,0-0.691-0.31-0.691-0.692v-4.211c0-0.779-0.635-1.414-1.414-1.414h-2.106
		c-3.864,0-7.009-3.144-7.009-7.008V47.74c0-0.383,0.311-0.691,0.691-0.691h2.105c0.781,0,1.416-0.635,1.416-1.416
		c0-0.779-0.635-1.414-1.416-1.414h-2.105c-0.381,0-0.691-0.309-0.691-0.689v-4.142c0.016-0.381,0.08-0.926,0.313-1.159
		c0.004-0.004,0.002-0.006,0.006-0.01c5.647-4.015,12.316-13.655,12.316-36.805C49.155,0.635,48.521,0,47.741,0H14.05
		c-0.779,0-1.414,0.635-1.414,1.414c0,23.152,6.67,32.791,12.317,36.807c0.003,0.002,0.001,0.004,0.005,0.008
		c0.231,0.231,0.296,0.768,0.312,1.148v4.152c0,0.381-0.31,0.689-0.69,0.689h-2.106c-0.78,0-1.415,0.635-1.415,1.414
		c0,0.781,0.635,1.416,1.415,1.416h2.106c0.381,0,0.69,0.309,0.69,0.691v2.105c0,3.864-3.144,7.008-7.009,7.008h-2.105
		c-0.779,0-1.414,0.635-1.414,1.414v4.211c0,0.383-0.31,0.692-0.691,0.692H9.839c-0.78,0-1.415,0.634-1.415,1.415
		C8.424,65.365,9.059,66,9.839,66h42.113c0.779,0,1.414-0.635,1.414-1.414C53.366,63.805,52.731,63.171,51.952,63.171z
		 M22.521,31.685c-4.43-6.114-6.796-15.585-7.035-28.152c-0.004-0.186,0.067-0.365,0.197-0.497c0.13-0.132,0.308-0.207,0.493-0.207
		h29.438c0.186,0,0.363,0.075,0.494,0.207c0.129,0.132,0.201,0.312,0.197,0.497c-0.238,12.554-2.602,22.021-7.023,28.135
		c-3.502,4.843-7.191,5.96-8.238,6.189c-0.049,0.01-0.098,0.015-0.146,0.015s-0.098-0.005-0.146-0.015
		C29.706,37.631,26.022,36.52,22.521,31.685z M28.79,47.049h4.211c0.382,0,0.691,0.309,0.691,0.691v2.105
		c0,2.113,0.697,4.154,2.02,5.9c0.158,0.209,0.184,0.489,0.066,0.725c-0.117,0.234-0.355,0.383-0.618,0.383h-8.53
		c-0.262,0-0.501-0.148-0.618-0.383c-0.116-0.235-0.091-0.516,0.067-0.725c1.321-1.746,2.02-3.787,2.02-5.9V47.74
		C28.099,47.357,28.408,47.049,28.79,47.049z M28.099,43.529v-2.557c0-0.222,0.105-0.43,0.285-0.561
		c0.119-0.086,0.262-0.131,0.406-0.131c0.072,0,0.144,0.012,0.214,0.034c1.056,0.343,1.733,0.408,1.766,0.411
		c0.042,0.004,0.083,0.004,0.122,0.004h0.007c0.04,0,0.081,0,0.126-0.005c0.029-0.002,0.707-0.067,1.762-0.41
		c0.07-0.022,0.143-0.034,0.215-0.034c0.145,0,0.287,0.045,0.406,0.131c0.179,0.131,0.285,0.339,0.285,0.561v2.557
		c0,0.381-0.31,0.689-0.691,0.689H28.79C28.408,44.219,28.099,43.91,28.099,43.529z M44.221,62.479c0,0.383-0.31,0.692-0.691,0.692
		H18.261c-0.381,0-0.69-0.31-0.69-0.692v-2.104c0-0.383,0.31-0.691,0.69-0.691h25.269c0.382,0,0.691,0.309,0.691,0.691V62.479z"/>
</g>
</svg>
